<svg width="310" height="72" viewBox="0 0 310 72" fill="none" xmlns="http://www.w3.org/2000/svg" role="img" aria-labelledby="sandtuari-connect-title">
  <title id="sandtuari-connect-title">Sandtuari Connect</title>
  <g transform="translate(4 8) scale(0.2916667)">
    <rect width="192" height="192" rx="32" fill="#ebe2d3"/>
    <g fill="#a17f36" fill-rule="nonzero" transform="translate(50.7,220.5) scale(0.138889,-0.138889) translate(-4510,0)">
      <path d="M 5033.47,517.48 H 4638.7 v 287.641 l 0.63,16.543 c 0,108.664 88.09,196.756 196.76,196.756 108.67,0 196.76,-88.092 196.76,-196.756 l 0.62,-16.543 z m 128.1,304.184 c 0,179.476 -146,325.476 -325.48,325.476 -179.47,0 -325.49,-146 -325.49,-325.476 l -0.43,-16.543 V 392.012 h 128.53 v 0 h 394.77 v 0 H 5162 v 413.109 l -0.43,16.543"/>
      <path d="m 5162,1399.98 v -125.47 h -651.83 v 125.47 H 5162"/>
    </g>
  </g>
  <text x="76" y="34" fill="#153f45" font-family="Inter, Arial, sans-serif" font-size="23" font-weight="700" letter-spacing="2">SANDTUARI</text>
  <text x="78" y="53" fill="#C9AE6A" font-family="Inter, Arial, sans-serif" font-size="12" font-weight="600" letter-spacing="3">CONNECT</text>
</svg>
